<?xml version="1.0" standalone="no"?>
<!DOCTYPE svg PUBLIC "-//W3C//DTD SVG 20010904//EN"
 "http://www.w3.org/TR/2001/REC-SVG-20010904/DTD/svg10.dtd">
<svg version="1.0" xmlns="http://www.w3.org/2000/svg"
 width="1280.000000pt" height="640.000000pt" viewBox="0 0 1280.000000 640.000000"
 preserveAspectRatio="xMidYMid meet">
<metadata>
Created by potrace 1.15, written by Peter Selinger 2001-2017
</metadata>
<g transform="translate(0.000000,640.000000) scale(0.100000,-0.100000)"
fill="#000000" stroke="none">
<path d="M12524 6346 c-17 -13 -19 -29 -21 -188 -2 -269 -31 -361 -131 -425
-31 -20 -1120 -702 -2419 -1514 -2178 -1362 -2366 -1477 -2415 -1483 -190 -24
-465 -109 -1009 -315 -496 -187 -1051 -345 -2093 -596 -264 -63 -496 -115
-516 -115 -57 0 -99 35 -160 135 -30 50 -184 315 -341 590 -243 425 -284 502
-272 512 8 6 197 107 419 224 222 117 404 217 404 221 0 4 -39 8 -86 8 l-87 0
-396 -171 c-467 -202 -805 -347 -1158 -500 -142 -61 -295 -127 -340 -147 -46
-19 -83 -39 -83 -43 0 -4 33 -10 73 -14 72 -7 73 -6 349 88 l277 95 15 -52
c148 -517 339 -1179 347 -1204 l11 -33 177 6 c97 4 304 22 461 41 157 19 515
61 795 94 281 34 538 64 573 69 34 4 59 4 55 1 -4 -4 -75 -30 -158 -58 -82
-27 -269 -91 -415 -142 -146 -51 -276 -96 -290 -100 -14 -4 -144 -49 -290
-100 -146 -50 -393 -136 -550 -190 -157 -54 -404 -140 -550 -190 -146 -51
-276 -96 -290 -100 -14 -4 -144 -49 -290 -100 -146 -50 -393 -136 -550 -190
-615 -212 -808 -279 -879 -304 l-74 -26 -45 26 c-83 49 -157 105 -286 217
-134 117 -218 177 -248 177 -21 0 -38 -29 -38 -68 0 -87 170 -293 297 -360
140 -74 319 -92 454 -48 41 14 144 47 229 75 231 74 994 319 1328 427 160 52
424 136 585 188 160 52 490 158 732 236 242 78 508 163 590 190 143 46 272 88
618 199 83 27 223 72 310 100 86 28 228 74 315 102 86 28 218 70 292 94 128
42 146 45 340 60 140 11 451 19 985 25 1064 12 1150 17 1485 82 391 75 735
223 824 355 86 125 -44 245 -389 361 -196 65 -622 162 -714 162 -62 0 -124
-45 854 612 259 173 1163 780 2010 1348 847 568 1555 1047 1573 1064 100 93
105 228 16 415 -40 82 -137 191 -170 191 -11 0 -29 -6 -40 -14z"
fill="url(#paint1)"/>
</g>
<defs>
<linearGradient id="paint1">
<stop stop-color="#aa42f5"/>
<stop offset="1" stop-color="#451ca6"/>
</linearGradient>
</defs>
</svg>
